<?xml version="1.0" standalone="no"?>
<!DOCTYPE svg PUBLIC "-//W3C//DTD SVG 20010904//EN"
 "http://www.w3.org/TR/2001/REC-SVG-20010904/DTD/svg10.dtd">
<svg version="1.0" xmlns="http://www.w3.org/2000/svg"
 width="1920.000000pt" height="1920.000000pt" viewBox="0 0 1920.000000 1920.000000"
 preserveAspectRatio="xMidYMid meet">

<g transform="translate(0.000000,1920.000000) scale(0.100000,-0.100000)"
fill="#011d28e5" stroke="none">
<path d="M3960 19189 c-936 -75 -1766 -417 -2472 -1021 -141 -120 -386 -369
-503 -511 -213 -258 -377 -509 -526 -802 -103 -206 -138 -286 -206 -470 -129
-354 -203 -701 -238 -1110 -22 -256 -22 -11094 0 -11350 50 -588 181 -1056
440 -1570 207 -412 441 -739 770 -1073 742 -757 1683 -1191 2754 -1272 185
-14 11055 -14 11242 0 561 42 1057 174 1547 411 294 142 473 251 737 449 426
319 803 740 1090 1215 133 221 308 598 377 810 120 372 184 685 213 1045 22
263 22 11057 0 11320 -29 360 -93 673 -213 1045 -69 212 -244 589 -377 810
-494 819 -1238 1448 -2121 1795 -395 155 -812 247 -1264 280 -167 12 -11096
11 -11250 -1z m10520 -1552 c195 -27 294 -45 445 -82 1287 -315 2309 -1333
2629 -2620 34 -138 61 -285 83 -450 17 -134 18 -351 18 -4885 0 -4534 -1
-4751 -18 -4885 -58 -445 -169 -813 -361 -1195 -343 -684 -902 -1244 -1585
-1589 -453 -229 -894 -349 -1396 -381 -132 -8 -1421 -10 -4805 -8 -4285 4
-4635 5 -4755 21 -720 95 -1297 335 -1845 768 -130 102 -450 421 -552 549
-314 396 -534 823 -662 1287 -73 264 -111 497 -126 791 -13 237 -13 9047 0
9284 41 783 298 1458 789 2078 97 123 419 445 541 542 618 490 1348 764 2105
791 44 2 2170 3 4725 2 4335 -1 4653 -2 4770 -18z"/>
<path d="M9305 15730 c-570 -64 -1084 -275 -1525 -626 -114 -91 -339 -317
-432 -434 -267 -337 -439 -686 -541 -1095 -60 -239 -81 -449 -74 -733 8 -306
44 -521 138 -804 142 -432 364 -787 698 -1118 153 -152 244 -228 414 -345
l102 -70 6 -505 c5 -464 7 -513 27 -598 51 -228 143 -428 278 -608 108 -143
336 -339 481 -413 l43 -21 2 -2353 c3 -2316 3 -2353 23 -2392 25 -50 80 -105
130 -130 38 -19 63 -20 525 -20 460 0 487 1 524 19 50 25 100 75 128 129 l23
42 5 2352 5 2352 85 51 c348 209 597 542 694 927 42 166 46 232 46 711 l0 457
95 63 c212 140 477 380 631 572 300 371 510 830 589 1285 29 164 31 189 41
400 8 196 -5 386 -42 595 -133 742 -587 1424 -1228 1844 -367 241 -731 379
-1186 451 -122 20 -577 29 -705 15z m2261 -1920 c27 0 64 -51 64 -86 0 -55
-34 -84 -131 -109 -82 -22 -199 -63 -199 -70 0 -2 22 -46 48 -98 60 -116 83
-202 90 -333 11 -239 -63 -428 -238 -605 -88 -88 -105 -101 -210 -152 -147
-71 -249 -92 -400 -84 -110 6 -203 29 -295 71 l-54 24 -59 -141 c-33 -78 -74
-181 -92 -229 -36 -97 -52 -116 -102 -124 -27 -5 -40 -1 -65 20 -54 46 -52 66
22 253 312 782 751 1320 1280 1569 132 62 279 108 313 98 8 -2 20 -4 28 -4z
m-3761 -28 c244 -78 534 -268 751 -494 283 -293 528 -700 721 -1197 50 -129
50 -155 0 -197 -25 -21 -38 -25 -65 -20 -50 8 -67 28 -102 120 -66 173 -152
366 -164 366 -7 0 -31 -9 -53 -20 -95 -46 -191 -65 -328 -65 -156 0 -239 21
-379 92 -128 66 -261 199 -328 328 -61 118 -88 215 -95 345 -8 159 27 305 107
446 18 30 31 57 29 59 -9 9 -120 48 -198 71 -59 16 -93 32 -108 50 -31 34 -30
83 2 118 33 35 93 35 210 -2z m1985 -3257 c225 -48 414 -168 566 -361 46 -59
57 -83 50 -117 -10 -49 -43 -77 -90 -77 -50 0 -51 1 -108 75 -152 200 -361
305 -609 305 -193 0 -382 -75 -513 -205 -39 -38 -92 -95 -117 -125 -41 -49
-49 -54 -83 -53 -53 2 -91 39 -91 92 0 30 10 51 45 97 228 302 595 444 950
369z m-76 -970 c92 -24 166 -66 233 -131 80 -78 99 -120 79 -169 -10 -22 -27
-41 -50 -51 -47 -23 -80 -9 -140 61 -65 76 -137 109 -236 109 -99 0 -171 -33
-236 -109 -57 -66 -92 -83 -134 -65 -71 30 -79 99 -19 177 116 150 325 224
503 178z"/>
<path d="M11034 13388 c-174 -122 -418 -387 -566 -613 -56 -87 -142 -235 -137
-238 17 -11 113 -49 149 -59 25 -6 97 -12 160 -11 129 0 214 23 316 84 70 43
164 139 209 214 117 195 109 462 -18 649 l-24 36 -89 -62z"/>
<path d="M8033 13388 c-61 -103 -78 -168 -77 -313 0 -115 3 -138 26 -197 71
-188 221 -334 398 -389 82 -25 233 -32 316 -14 73 16 164 53 164 68 0 13 -86
157 -160 267 -121 180 -297 378 -450 504 -81 68 -163 126 -177 126 -5 0 -23
-24 -40 -52z"/>
<path d="M6685 15644 c-242 -35 -447 -140 -635 -324 -286 -279 -444 -576 -852
-1595 -274 -685 -297 -722 -689 -1134 -112 -117 -228 -243 -258 -280 -175
-213 -311 -504 -355 -756 -20 -114 -21 -326 -1 -437 121 -696 820 -1226 2014
-1527 255 -64 384 -91 691 -141 175 -29 469 -67 620 -81 158 -14 498 -17 622
-5 l88 8 -5 31 c-2 18 -9 65 -15 106 -6 45 -11 238 -10 481 l0 406 -127 96
c-226 169 -408 344 -573 550 -880 1101 -881 2649 -1 3743 125 155 330 358 501
493 52 42 99 79 103 82 17 15 -328 170 -473 214 -192 58 -256 68 -440 71 -96
2 -188 1 -205 -1z m-488 -1907 c38 -34 38 -67 -1 -164 -19 -48 -82 -209 -141
-357 -181 -458 -306 -691 -503 -936 -100 -125 -142 -170 -351 -390 -239 -249
-291 -323 -326 -457 -20 -77 -19 -133 5 -201 25 -69 19 -102 -22 -137 -80 -67
-157 10 -181 183 -18 130 26 286 126 440 24 38 144 174 267 303 356 375 482
543 626 836 47 95 123 271 170 390 201 513 190 488 238 508 35 15 63 9 93 -18z"/>
<path d="M12175 15644 c-211 -31 -465 -117 -707 -240 l-78 -39 72 -55 c472
-357 836 -854 1033 -1410 81 -227 125 -429 155 -715 12 -113 12 -471 0 -555
-5 -30 -11 -80 -14 -110 -20 -186 -91 -463 -172 -673 -90 -233 -266 -550 -412
-741 -180 -237 -438 -486 -679 -654 l-61 -43 -5 -437 c-4 -319 -9 -459 -20
-517 -8 -44 -14 -81 -13 -82 1 -2 81 -8 177 -14 393 -24 1022 48 1659 192
1261 284 2019 806 2176 1498 90 398 -15 824 -297 1204 -39 53 -153 182 -252
285 -430 447 -458 492 -717 1137 -217 542 -307 752 -421 981 -107 219 -252
447 -362 573 -171 195 -380 331 -597 388 -80 21 -122 26 -265 28 -93 2 -183 1
-200 -1z m952 -1907 c14 -12 56 -104 104 -226 331 -844 418 -988 912 -1500
206 -214 285 -316 335 -437 58 -136 66 -291 23 -405 -26 -69 -47 -89 -100 -96
-35 -5 -44 -2 -71 25 -34 35 -37 61 -14 132 22 67 15 186 -15 262 -34 88 -109
194 -207 294 -150 152 -292 304 -393 420 -131 150 -275 371 -375 579 -93 192
-356 844 -356 883 0 85 94 126 157 69z"/>
<path d="M7849 9090 c-318 -261 -721 -651 -953 -922 -584 -685 -925 -1360
-1026 -2034 -27 -179 -37 -486 -21 -654 42 -438 173 -754 410 -990 241 -239
560 -374 1031 -435 151 -19 554 -40 614 -31 82 13 146 89 146 175 0 40 -39
109 -73 130 -18 10 -68 31 -112 46 -252 84 -481 242 -627 435 -191 251 -242
609 -143 1003 125 494 481 1112 958 1662 164 189 511 508 653 601 22 15 24 23
24 94 l0 78 -45 27 c-74 43 -235 176 -317 263 -153 160 -271 346 -353 552 -21
52 -39 96 -40 98 -2 2 -58 -43 -126 -98z"/>
<path d="M11205 9138 c-119 -335 -368 -651 -671 -850 l-64 -42 0 -77 0 -77 53
-38 c400 -286 843 -788 1174 -1328 513 -839 596 -1519 237 -1953 -80 -98 -179
-184 -299 -260 -86 -54 -255 -131 -346 -157 -124 -35 -176 -162 -107 -261 44
-66 62 -70 267 -68 1015 10 1593 326 1807 988 77 236 99 401 98 715 0 198 -5
272 -22 385 -108 698 -450 1378 -1040 2065 -146 171 -474 503 -662 670 -132
118 -396 340 -404 340 -1 0 -10 -24 -21 -52z"/>
</g>
</svg>
